<?xml version="1.0" encoding="UTF-8" standalone="no"?>
<!-- Created with Inkscape (http://www.inkscape.org/) -->

<svg
   xmlns:dc="http://purl.org/dc/elements/1.1/"
   xmlns:cc="http://creativecommons.org/ns#"
   xmlns:rdf="http://www.w3.org/1999/02/22-rdf-syntax-ns#"
   xmlns:svg="http://www.w3.org/2000/svg"
   xmlns="http://www.w3.org/2000/svg"
   xmlns:sodipodi="http://sodipodi.sourceforge.net/DTD/sodipodi-0.dtd"
   xmlns:inkscape="http://www.inkscape.org/namespaces/inkscape"
   width="16"
   height="16"
   id="svg5039"
   version="1.1"
   inkscape:version="0.48.3.1 r9886"
   sodipodi:docname="favicon.svg">
  <defs
     id="defs5041" />
  <sodipodi:namedview
     id="base"
     pagecolor="#ffffff"
     bordercolor="#666666"
     borderopacity="1.0"
     inkscape:pageopacity="0.0"
     inkscape:pageshadow="2"
     inkscape:zoom="11.2"
     inkscape:cx="8.9954197"
     inkscape:cy="10.45527"
     inkscape:document-units="px"
     inkscape:current-layer="layer1"
     showgrid="false"
     inkscape:window-width="619"
     inkscape:window-height="552"
     inkscape:window-x="0"
     inkscape:window-y="25"
     inkscape:window-maximized="0" />
  <metadata
     id="metadata5044">
    <rdf:RDF>
      <cc:Work
         rdf:about="">
        <dc:format>image/svg+xml</dc:format>
        <dc:type
           rdf:resource="http://purl.org/dc/dcmitype/StillImage" />
        <dc:title />
      </cc:Work>
    </rdf:RDF>
  </metadata>
  <g
     inkscape:label="Layer 1"
     inkscape:groupmode="layer"
     id="layer1"
     transform="translate(0,-1036.3622)">
    <g
       transform="matrix(0.11646141,0,0,0.11646141,-812.14278,1111.7896)"
       id="g8706-3"
       inkscape:export-filename="/home/golgauth/Desktop/logo-all.png"
       inkscape:export-xdpi="117.15575"
       inkscape:export-ydpi="117.15575">
      <rect
         inkscape:export-ydpi="10.730199"
         inkscape:export-xdpi="10.730199"
         inkscape:export-filename="/home/golgauth/Desktop/elp-cpp-fav.png"
         ry="0"
         y="-645.6087"
         x="6974.625"
         height="134.20062"
         width="134.20062"
         id="rect8433-5-4-7"
         style="fill:none;stroke:none" />
      <path
         inkscape:export-ydpi="10.730199"
         inkscape:export-xdpi="10.730199"
         inkscape:export-filename="/home/golgauth/Desktop/elp-cpp-fav.png"
         transform="matrix(0.03619174,-1.1403214,1.2061475,0.03421654,7777.6596,6526.75)"
         d="m 6228.3854,-798.03271 c 0,27.16051 -16.1664,49.17845 -36.1085,49.17845 -19.9422,0 -36.1086,-22.01794 -36.1086,-49.17845 0,-27.16052 16.1664,-49.17846 36.1086,-49.17846 19.9421,0 36.1085,22.01794 36.1085,49.17846 z"
         sodipodi:ry="49.178459"
         sodipodi:rx="36.108509"
         sodipodi:cy="-798.03271"
         sodipodi:cx="6192.2769"
         id="path7117-1-5-1-7-0-0-8-1"
         style="fill:#294e6f;fill-opacity:1;stroke:none"
         sodipodi:type="arc" />
      <path
         inkscape:export-ydpi="10.730199"
         inkscape:export-xdpi="10.730199"
         inkscape:export-filename="/home/golgauth/Desktop/elp-cpp-fav.png"
         transform="matrix(0.04058329,-0.95943089,0.87005569,0.01284124,7482.2535,5389.5674)"
         d="m 6228.3854,-798.03271 c 0,27.16051 -16.1664,49.17845 -36.1085,49.17845 -19.9422,0 -36.1086,-22.01794 -36.1086,-49.17845 0,-27.16052 16.1664,-49.17846 36.1086,-49.17846 19.9421,0 36.1085,22.01794 36.1085,49.17846 z"
         sodipodi:ry="49.178459"
         sodipodi:rx="36.108509"
         sodipodi:cy="-798.03271"
         sodipodi:cx="6192.2769"
         id="path7117-8-0-8-8-8-7-6-4-6"
         style="fill:#f1f4f6;fill-opacity:1;stroke:none"
         sodipodi:type="arc" />
      <path
         inkscape:export-ydpi="10.730199"
         inkscape:export-xdpi="10.730199"
         inkscape:export-filename="/home/golgauth/Desktop/elp-cpp-fav.png"
         transform="matrix(0.88936608,-1.1718332,0.73707998,0.73298787,2125.1111,7272.8114)"
         d="m 6172.5615,-813.42871 c 0,2.75275 -2.2316,4.9843 -4.9844,4.9843 -2.7527,0 -4.9843,-2.23155 -4.9843,-4.9843 0,-2.75276 2.2316,-4.9843 4.9843,-4.9843 2.7528,0 4.9844,2.23154 4.9844,4.9843 z"
         sodipodi:ry="4.9843035"
         sodipodi:rx="4.9843035"
         sodipodi:cy="-813.42871"
         sodipodi:cx="6167.5771"
         id="path7144-3-6-2-2-4-2-7-1-1"
         style="fill:#e10000;fill-opacity:1;stroke:none"
         sodipodi:type="arc" />
      <path
         inkscape:export-ydpi="10.730199"
         inkscape:export-xdpi="10.730199"
         inkscape:export-filename="/home/golgauth/Desktop/elp-cpp-fav.png"
         transform="matrix(0.77061314,-1.2772968,0.80341631,0.63511533,2924.484,7852.3681)"
         d="m 6172.5615,-813.42871 c 0,2.75275 -2.2316,4.9843 -4.9844,4.9843 -2.7527,0 -4.9843,-2.23155 -4.9843,-4.9843 0,-2.75276 2.2316,-4.9843 4.9843,-4.9843 2.7528,0 4.9844,2.23154 4.9844,4.9843 z"
         sodipodi:ry="4.9843035"
         sodipodi:rx="4.9843035"
         sodipodi:cy="-813.42871"
         sodipodi:cx="6167.5771"
         id="path7144-3-6-7-3-6-9-0-4-6"
         style="fill:#e10000;fill-opacity:1;stroke:none"
         sodipodi:type="arc" />
      <path
         inkscape:export-ydpi="10.730199"
         inkscape:export-xdpi="10.730199"
         inkscape:export-filename="/home/golgauth/Desktop/elp-cpp-fav.png"
         transform="matrix(0.02639567,-1.5519931,0.97619968,0.02175449,7670.7166,9050.833)"
         d="m 6172.5615,-813.42871 c 0,2.75275 -2.2316,4.9843 -4.9844,4.9843 -2.7527,0 -4.9843,-2.23155 -4.9843,-4.9843 0,-2.75276 2.2316,-4.9843 4.9843,-4.9843 2.7528,0 4.9844,2.23154 4.9844,4.9843 z"
         sodipodi:ry="4.9843035"
         sodipodi:rx="4.9843035"
         sodipodi:cy="-813.42871"
         sodipodi:cx="6167.5771"
         id="path7144-3-6-3-7-7-8-8-0-1"
         style="fill:#e10000;fill-opacity:1;stroke:none"
         sodipodi:type="arc" />
      <path
         inkscape:export-ydpi="10.730199"
         inkscape:export-xdpi="10.730199"
         inkscape:export-filename="/home/golgauth/Desktop/elp-cpp-fav.png"
         transform="matrix(-0.49673806,-1.4443973,0.90852205,-0.40939605,10857.967,8032.8925)"
         d="m 6172.5615,-813.42871 c 0,2.75275 -2.2316,4.9843 -4.9844,4.9843 -2.7527,0 -4.9843,-2.23155 -4.9843,-4.9843 0,-2.75276 2.2316,-4.9843 4.9843,-4.9843 2.7528,0 4.9844,2.23154 4.9844,4.9843 z"
         sodipodi:ry="4.9843035"
         sodipodi:rx="4.9843035"
         sodipodi:cy="-813.42871"
         sodipodi:cx="6167.5771"
         id="path7144-3-6-0-7-0-3-0-2-2"
         style="fill:#e10000;fill-opacity:1;stroke:none"
         sodipodi:type="arc" />
      <path
         inkscape:export-ydpi="10.730199"
         inkscape:export-xdpi="10.730199"
         inkscape:export-filename="/home/golgauth/Desktop/elp-cpp-fav.png"
         transform="matrix(-0.85715633,-1.2028731,0.75660396,-0.70644154,12970.398,6291.7543)"
         d="m 6172.5615,-813.42871 c 0,2.75275 -2.2316,4.9843 -4.9844,4.9843 -2.7527,0 -4.9843,-2.23155 -4.9843,-4.9843 0,-2.75276 2.2316,-4.9843 4.9843,-4.9843 2.7528,0 4.9844,2.23154 4.9844,4.9843 z"
         sodipodi:ry="4.9843035"
         sodipodi:rx="4.9843035"
         sodipodi:cy="-813.42871"
         sodipodi:cx="6167.5771"
         id="path7144-3-6-9-0-9-4-5-9-6"
         style="fill:#e10000;fill-opacity:1;stroke:none"
         sodipodi:type="arc" />
      <path
         inkscape:export-ydpi="10.730199"
         inkscape:export-xdpi="10.730199"
         inkscape:export-filename="/home/golgauth/Desktop/elp-cpp-fav.png"
         sodipodi:nodetypes="cccccccc"
         inkscape:connector-curvature="0"
         id="path4237-5-2-3-4-1-0"
         d="m 6982.3353,-620.00797 99.0059,0 -0.5751,-18.99352 22.6953,29.02507 -22.2919,31.92974 0.3941,-21.46344 -99.2283,0 z"
         style="fill:#ffe938;fill-opacity:1;stroke:#294e6f;stroke-width:7.43200016;stroke-linecap:round;stroke-linejoin:round;stroke-miterlimit:4;stroke-opacity:1;stroke-dasharray:none" />
    </g>
  </g>
</svg>
